<mxfile host="app.diagrams.net" modified="2022-10-19T20:43:15.351Z" agent="5.0 (Windows NT 10.0; Win64; x64) AppleWebKit/537.36 (KHTML, like Gecko) Chrome/103.0.0.0 Safari/537.36" etag="pi04On8RhcDlXsSE4poC" version="20.3.3" type="github">
  <diagram id="9ryGAYnsp60zznlVaLfw" name="Page-1">
    <mxGraphModel dx="1422" dy="762" grid="1" gridSize="10" guides="1" tooltips="1" connect="1" arrows="1" fold="1" page="1" pageScale="1" pageWidth="1169" pageHeight="827" math="0" shadow="0">
      <root>
        <mxCell id="0" />
        <mxCell id="1" parent="0" />
        <mxCell id="VQjPy86mHkucHI1g0aib-139" value="" style="rounded=0;whiteSpace=wrap;html=1;" vertex="1" parent="1">
          <mxGeometry x="520" y="40" width="240" height="550" as="geometry" />
        </mxCell>
        <mxCell id="VQjPy86mHkucHI1g0aib-135" value="" style="whiteSpace=wrap;html=1;aspect=fixed;" vertex="1" parent="1">
          <mxGeometry x="800" y="235" width="355" height="355" as="geometry" />
        </mxCell>
        <mxCell id="VQjPy86mHkucHI1g0aib-1" value="" style="endArrow=classic;html=1;rounded=0;" edge="1" parent="1">
          <mxGeometry width="50" height="50" relative="1" as="geometry">
            <mxPoint x="140" y="330" as="sourcePoint" />
            <mxPoint x="250" y="330" as="targetPoint" />
          </mxGeometry>
        </mxCell>
        <mxCell id="VQjPy86mHkucHI1g0aib-3" value="" style="endArrow=classic;html=1;rounded=0;startArrow=none;entryX=0.25;entryY=1;entryDx=0;entryDy=0;" edge="1" parent="1" source="VQjPy86mHkucHI1g0aib-6">
          <mxGeometry width="50" height="50" relative="1" as="geometry">
            <mxPoint x="270" y="310" as="sourcePoint" />
            <mxPoint x="315" y="255" as="targetPoint" />
          </mxGeometry>
        </mxCell>
        <mxCell id="VQjPy86mHkucHI1g0aib-4" value="Under Warrenty" style="text;html=1;strokeColor=none;fillColor=none;align=center;verticalAlign=middle;whiteSpace=wrap;rounded=0;" vertex="1" parent="1">
          <mxGeometry x="250" y="315" width="60" height="30" as="geometry" />
        </mxCell>
        <mxCell id="VQjPy86mHkucHI1g0aib-5" value="" style="endArrow=classic;html=1;rounded=0;exitX=0.5;exitY=0;exitDx=0;exitDy=0;" edge="1" parent="1">
          <mxGeometry width="50" height="50" relative="1" as="geometry">
            <mxPoint x="330" y="225" as="sourcePoint" />
            <mxPoint x="490" y="50" as="targetPoint" />
          </mxGeometry>
        </mxCell>
        <mxCell id="VQjPy86mHkucHI1g0aib-7" value="" style="endArrow=classic;html=1;rounded=0;startArrow=none;" edge="1" parent="1" source="VQjPy86mHkucHI1g0aib-8">
          <mxGeometry width="50" height="50" relative="1" as="geometry">
            <mxPoint x="300" y="380" as="sourcePoint" />
            <mxPoint x="510" y="570" as="targetPoint" />
          </mxGeometry>
        </mxCell>
        <mxCell id="VQjPy86mHkucHI1g0aib-10" value="" style="endArrow=classic;html=1;rounded=0;exitX=1;exitY=0.5;exitDx=0;exitDy=0;" edge="1" parent="1">
          <mxGeometry width="50" height="50" relative="1" as="geometry">
            <mxPoint x="360" y="240" as="sourcePoint" />
            <mxPoint x="500" y="150" as="targetPoint" />
          </mxGeometry>
        </mxCell>
        <mxCell id="VQjPy86mHkucHI1g0aib-11" value="" style="endArrow=classic;html=1;rounded=0;exitX=0.633;exitY=1;exitDx=0;exitDy=0;exitPerimeter=0;" edge="1" parent="1" source="VQjPy86mHkucHI1g0aib-85">
          <mxGeometry width="50" height="50" relative="1" as="geometry">
            <mxPoint x="360.43" y="255" as="sourcePoint" />
            <mxPoint x="499.56043478260875" y="355" as="targetPoint" />
          </mxGeometry>
        </mxCell>
        <mxCell id="VQjPy86mHkucHI1g0aib-8" value="Yes" style="text;html=1;align=center;verticalAlign=middle;resizable=0;points=[];autosize=1;strokeColor=none;fillColor=none;" vertex="1" parent="1">
          <mxGeometry x="330" y="410" width="40" height="30" as="geometry" />
        </mxCell>
        <mxCell id="VQjPy86mHkucHI1g0aib-6" value="No" style="text;html=1;align=center;verticalAlign=middle;resizable=0;points=[];autosize=1;strokeColor=none;fillColor=none;" vertex="1" parent="1">
          <mxGeometry x="270" y="285" width="40" height="30" as="geometry" />
        </mxCell>
        <mxCell id="VQjPy86mHkucHI1g0aib-13" value="" style="endArrow=none;html=1;rounded=0;" edge="1" parent="1" target="VQjPy86mHkucHI1g0aib-6">
          <mxGeometry width="50" height="50" relative="1" as="geometry">
            <mxPoint x="270" y="310" as="sourcePoint" />
            <mxPoint x="320" y="260" as="targetPoint" />
          </mxGeometry>
        </mxCell>
        <mxCell id="VQjPy86mHkucHI1g0aib-14" value="" style="endArrow=classic;html=1;rounded=0;entryX=0.25;entryY=-0.133;entryDx=0;entryDy=0;entryPerimeter=0;" edge="1" parent="1" target="VQjPy86mHkucHI1g0aib-8">
          <mxGeometry width="50" height="50" relative="1" as="geometry">
            <mxPoint x="290" y="350" as="sourcePoint" />
            <mxPoint x="610" y="350" as="targetPoint" />
          </mxGeometry>
        </mxCell>
        <mxCell id="VQjPy86mHkucHI1g0aib-15" value="New Latch" style="text;html=1;align=center;verticalAlign=middle;resizable=0;points=[];autosize=1;strokeColor=none;fillColor=none;" vertex="1" parent="1">
          <mxGeometry x="360" y="125" width="80" height="30" as="geometry" />
        </mxCell>
        <mxCell id="VQjPy86mHkucHI1g0aib-18" value="New Chassis" style="text;html=1;strokeColor=none;fillColor=none;align=center;verticalAlign=middle;whiteSpace=wrap;rounded=0;" vertex="1" parent="1">
          <mxGeometry x="400" y="210" width="60" height="30" as="geometry" />
        </mxCell>
        <mxCell id="VQjPy86mHkucHI1g0aib-20" value="" style="endArrow=classic;html=1;rounded=0;exitX=0.75;exitY=1;exitDx=0;exitDy=0;" edge="1" parent="1">
          <mxGeometry width="50" height="50" relative="1" as="geometry">
            <mxPoint x="345" y="255" as="sourcePoint" />
            <mxPoint x="500" y="290" as="targetPoint" />
          </mxGeometry>
        </mxCell>
        <mxCell id="VQjPy86mHkucHI1g0aib-28" value="Docking Connector" style="text;html=1;strokeColor=none;fillColor=none;align=center;verticalAlign=middle;whiteSpace=wrap;rounded=0;" vertex="1" parent="1">
          <mxGeometry x="380" y="285" width="60" height="30" as="geometry" />
        </mxCell>
        <mxCell id="VQjPy86mHkucHI1g0aib-29" value="" style="endArrow=classic;html=1;rounded=0;" edge="1" parent="1">
          <mxGeometry width="50" height="50" relative="1" as="geometry">
            <mxPoint x="330" y="270" as="sourcePoint" />
            <mxPoint x="500" y="440" as="targetPoint" />
          </mxGeometry>
        </mxCell>
        <mxCell id="VQjPy86mHkucHI1g0aib-30" value="PCB" style="text;html=1;strokeColor=none;fillColor=none;align=center;verticalAlign=middle;whiteSpace=wrap;rounded=0;" vertex="1" parent="1">
          <mxGeometry x="370" y="350" width="60" height="30" as="geometry" />
        </mxCell>
        <mxCell id="VQjPy86mHkucHI1g0aib-31" value="Repair" style="text;html=1;strokeColor=none;fillColor=none;align=center;verticalAlign=middle;whiteSpace=wrap;rounded=0;" vertex="1" parent="1">
          <mxGeometry x="525" y="40" width="60" height="30" as="geometry" />
        </mxCell>
        <mxCell id="VQjPy86mHkucHI1g0aib-32" value="Replace" style="text;html=1;strokeColor=none;fillColor=none;align=center;verticalAlign=middle;whiteSpace=wrap;rounded=0;" vertex="1" parent="1">
          <mxGeometry x="525" y="140" width="60" height="30" as="geometry" />
        </mxCell>
        <mxCell id="VQjPy86mHkucHI1g0aib-33" value="USB" style="text;html=1;strokeColor=none;fillColor=none;align=center;verticalAlign=middle;whiteSpace=wrap;rounded=0;" vertex="1" parent="1">
          <mxGeometry x="450" y="240" width="60" height="30" as="geometry" />
        </mxCell>
        <mxCell id="VQjPy86mHkucHI1g0aib-34" value="Repair by elimination" style="text;html=1;strokeColor=none;fillColor=none;align=center;verticalAlign=middle;whiteSpace=wrap;rounded=0;" vertex="1" parent="1">
          <mxGeometry x="525" y="280" width="60" height="30" as="geometry" />
        </mxCell>
        <mxCell id="VQjPy86mHkucHI1g0aib-35" value="Repair" style="text;html=1;strokeColor=none;fillColor=none;align=center;verticalAlign=middle;whiteSpace=wrap;rounded=0;" vertex="1" parent="1">
          <mxGeometry x="523" y="345" width="60" height="30" as="geometry" />
        </mxCell>
        <mxCell id="VQjPy86mHkucHI1g0aib-36" value="Replace" style="text;html=1;strokeColor=none;fillColor=none;align=center;verticalAlign=middle;whiteSpace=wrap;rounded=0;" vertex="1" parent="1">
          <mxGeometry x="525" y="430" width="60" height="30" as="geometry" />
        </mxCell>
        <mxCell id="VQjPy86mHkucHI1g0aib-37" value="Total Units" style="text;html=1;strokeColor=none;fillColor=none;align=center;verticalAlign=middle;whiteSpace=wrap;rounded=0;" vertex="1" parent="1">
          <mxGeometry x="70" y="225" width="60" height="30" as="geometry" />
        </mxCell>
        <mxCell id="VQjPy86mHkucHI1g0aib-40" value="Repair" style="text;html=1;strokeColor=none;fillColor=none;align=center;verticalAlign=middle;whiteSpace=wrap;rounded=0;" vertex="1" parent="1">
          <mxGeometry x="525" y="550" width="60" height="30" as="geometry" />
        </mxCell>
        <mxCell id="VQjPy86mHkucHI1g0aib-41" value="Annual Repairs" style="text;html=1;strokeColor=none;fillColor=none;align=center;verticalAlign=middle;whiteSpace=wrap;rounded=0;" vertex="1" parent="1">
          <mxGeometry x="760" y="60" width="60" height="30" as="geometry" />
        </mxCell>
        <mxCell id="VQjPy86mHkucHI1g0aib-42" value="Annual Replace" style="text;html=1;strokeColor=none;fillColor=none;align=center;verticalAlign=middle;whiteSpace=wrap;rounded=0;" vertex="1" parent="1">
          <mxGeometry x="760" y="125" width="60" height="30" as="geometry" />
        </mxCell>
        <mxCell id="VQjPy86mHkucHI1g0aib-44" value="" style="endArrow=classic;html=1;rounded=0;" edge="1" parent="1">
          <mxGeometry width="50" height="50" relative="1" as="geometry">
            <mxPoint x="870" y="285" as="sourcePoint" />
            <mxPoint x="970" y="285" as="targetPoint" />
          </mxGeometry>
        </mxCell>
        <mxCell id="VQjPy86mHkucHI1g0aib-46" value="2018 Order" style="text;html=1;strokeColor=none;fillColor=none;align=center;verticalAlign=middle;whiteSpace=wrap;rounded=0;" vertex="1" parent="1">
          <mxGeometry x="800" y="270" width="60" height="30" as="geometry" />
        </mxCell>
        <mxCell id="VQjPy86mHkucHI1g0aib-47" value="10,700" style="text;html=1;strokeColor=none;fillColor=none;align=center;verticalAlign=middle;whiteSpace=wrap;rounded=0;" vertex="1" parent="1">
          <mxGeometry x="1000" y="270" width="60" height="30" as="geometry" />
        </mxCell>
        <mxCell id="VQjPy86mHkucHI1g0aib-48" value="2019&lt;br&gt;Order" style="text;html=1;strokeColor=none;fillColor=none;align=center;verticalAlign=middle;whiteSpace=wrap;rounded=0;" vertex="1" parent="1">
          <mxGeometry x="800" y="330" width="60" height="30" as="geometry" />
        </mxCell>
        <mxCell id="VQjPy86mHkucHI1g0aib-49" value="" style="endArrow=classic;html=1;rounded=0;" edge="1" parent="1">
          <mxGeometry width="50" height="50" relative="1" as="geometry">
            <mxPoint x="870" y="345" as="sourcePoint" />
            <mxPoint x="970" y="345" as="targetPoint" />
          </mxGeometry>
        </mxCell>
        <mxCell id="VQjPy86mHkucHI1g0aib-50" value="25" style="text;html=1;strokeColor=none;fillColor=none;align=center;verticalAlign=middle;whiteSpace=wrap;rounded=0;" vertex="1" parent="1">
          <mxGeometry x="995" y="330" width="60" height="30" as="geometry" />
        </mxCell>
        <mxCell id="VQjPy86mHkucHI1g0aib-51" value="2020 Order" style="text;html=1;strokeColor=none;fillColor=none;align=center;verticalAlign=middle;whiteSpace=wrap;rounded=0;" vertex="1" parent="1">
          <mxGeometry x="800" y="399" width="60" height="30" as="geometry" />
        </mxCell>
        <mxCell id="VQjPy86mHkucHI1g0aib-52" value="2021&lt;br&gt;Order" style="text;html=1;strokeColor=none;fillColor=none;align=center;verticalAlign=middle;whiteSpace=wrap;rounded=0;" vertex="1" parent="1">
          <mxGeometry x="800" y="460" width="60" height="30" as="geometry" />
        </mxCell>
        <mxCell id="VQjPy86mHkucHI1g0aib-53" value="2022&lt;br&gt;Order" style="text;html=1;strokeColor=none;fillColor=none;align=center;verticalAlign=middle;whiteSpace=wrap;rounded=0;" vertex="1" parent="1">
          <mxGeometry x="800" y="530" width="60" height="30" as="geometry" />
        </mxCell>
        <mxCell id="VQjPy86mHkucHI1g0aib-54" value="" style="endArrow=classic;html=1;rounded=0;" edge="1" parent="1">
          <mxGeometry width="50" height="50" relative="1" as="geometry">
            <mxPoint x="870" y="474.5" as="sourcePoint" />
            <mxPoint x="970" y="474.5" as="targetPoint" />
          </mxGeometry>
        </mxCell>
        <mxCell id="VQjPy86mHkucHI1g0aib-55" value="" style="endArrow=classic;html=1;rounded=0;" edge="1" parent="1">
          <mxGeometry width="50" height="50" relative="1" as="geometry">
            <mxPoint x="870" y="540" as="sourcePoint" />
            <mxPoint x="970" y="540" as="targetPoint" />
          </mxGeometry>
        </mxCell>
        <mxCell id="VQjPy86mHkucHI1g0aib-56" value="1,700" style="text;html=1;align=center;verticalAlign=middle;resizable=0;points=[];autosize=1;strokeColor=none;fillColor=none;" vertex="1" parent="1">
          <mxGeometry x="1005" y="460" width="50" height="30" as="geometry" />
        </mxCell>
        <mxCell id="VQjPy86mHkucHI1g0aib-57" value="2,000/2,000" style="text;html=1;align=center;verticalAlign=middle;resizable=0;points=[];autosize=1;strokeColor=none;fillColor=none;" vertex="1" parent="1">
          <mxGeometry x="985" y="530" width="90" height="30" as="geometry" />
        </mxCell>
        <mxCell id="VQjPy86mHkucHI1g0aib-58" value="" style="endArrow=classic;html=1;rounded=0;" edge="1" parent="1">
          <mxGeometry width="50" height="50" relative="1" as="geometry">
            <mxPoint x="870" y="413" as="sourcePoint" />
            <mxPoint x="970" y="413" as="targetPoint" />
          </mxGeometry>
        </mxCell>
        <mxCell id="VQjPy86mHkucHI1g0aib-59" value="1,700" style="text;html=1;align=center;verticalAlign=middle;resizable=0;points=[];autosize=1;strokeColor=none;fillColor=none;" vertex="1" parent="1">
          <mxGeometry x="1005" y="399" width="50" height="30" as="geometry" />
        </mxCell>
        <mxCell id="VQjPy86mHkucHI1g0aib-68" value="Gamber Provide " style="swimlane;fontStyle=0;childLayout=stackLayout;horizontal=1;startSize=30;horizontalStack=0;resizeParent=1;resizeParentMax=0;resizeLast=0;collapsible=1;marginBottom=0;" vertex="1" parent="1">
          <mxGeometry x="60" y="50" width="150" height="150" as="geometry" />
        </mxCell>
        <mxCell id="VQjPy86mHkucHI1g0aib-69" value="Annual RMA " style="text;strokeColor=none;fillColor=none;align=left;verticalAlign=middle;spacingLeft=4;spacingRight=4;overflow=hidden;points=[[0,0.5],[1,0.5]];portConstraint=eastwest;rotatable=0;" vertex="1" parent="VQjPy86mHkucHI1g0aib-68">
          <mxGeometry y="30" width="150" height="30" as="geometry" />
        </mxCell>
        <mxCell id="VQjPy86mHkucHI1g0aib-70" value="Issue Probability" style="text;strokeColor=none;fillColor=none;align=left;verticalAlign=middle;spacingLeft=4;spacingRight=4;overflow=hidden;points=[[0,0.5],[1,0.5]];portConstraint=eastwest;rotatable=0;" vertex="1" parent="VQjPy86mHkucHI1g0aib-68">
          <mxGeometry y="60" width="150" height="30" as="geometry" />
        </mxCell>
        <mxCell id="VQjPy86mHkucHI1g0aib-90" value="Repair Cost" style="text;strokeColor=none;fillColor=none;align=left;verticalAlign=middle;spacingLeft=4;spacingRight=4;overflow=hidden;points=[[0,0.5],[1,0.5]];portConstraint=eastwest;rotatable=0;" vertex="1" parent="VQjPy86mHkucHI1g0aib-68">
          <mxGeometry y="90" width="150" height="30" as="geometry" />
        </mxCell>
        <mxCell id="VQjPy86mHkucHI1g0aib-71" value="Annual Order" style="text;strokeColor=none;fillColor=none;align=left;verticalAlign=middle;spacingLeft=4;spacingRight=4;overflow=hidden;points=[[0,0.5],[1,0.5]];portConstraint=eastwest;rotatable=0;" vertex="1" parent="VQjPy86mHkucHI1g0aib-68">
          <mxGeometry y="120" width="150" height="30" as="geometry" />
        </mxCell>
        <mxCell id="VQjPy86mHkucHI1g0aib-72" value="Ops Sys" style="swimlane;fontStyle=0;childLayout=stackLayout;horizontal=1;startSize=30;horizontalStack=0;resizeParent=1;resizeParentMax=0;resizeLast=0;collapsible=1;marginBottom=0;" vertex="1" parent="1">
          <mxGeometry x="220" y="50" width="140" height="90" as="geometry" />
        </mxCell>
        <mxCell id="VQjPy86mHkucHI1g0aib-73" value="Annual RMA " style="text;strokeColor=none;fillColor=none;align=left;verticalAlign=middle;spacingLeft=4;spacingRight=4;overflow=hidden;points=[[0,0.5],[1,0.5]];portConstraint=eastwest;rotatable=0;" vertex="1" parent="VQjPy86mHkucHI1g0aib-72">
          <mxGeometry y="30" width="140" height="30" as="geometry" />
        </mxCell>
        <mxCell id="VQjPy86mHkucHI1g0aib-75" value="Annual Order" style="text;strokeColor=none;fillColor=none;align=left;verticalAlign=middle;spacingLeft=4;spacingRight=4;overflow=hidden;points=[[0,0.5],[1,0.5]];portConstraint=eastwest;rotatable=0;" vertex="1" parent="VQjPy86mHkucHI1g0aib-72">
          <mxGeometry y="60" width="140" height="30" as="geometry" />
        </mxCell>
        <mxCell id="VQjPy86mHkucHI1g0aib-76" value="Dock RMA" style="swimlane;fontStyle=0;childLayout=stackLayout;horizontal=1;startSize=30;horizontalStack=0;resizeParent=1;resizeParentMax=0;resizeLast=0;collapsible=1;marginBottom=0;" vertex="1" parent="1">
          <mxGeometry x="40" y="260" width="100" height="120" as="geometry" />
        </mxCell>
        <mxCell id="VQjPy86mHkucHI1g0aib-77" value="Under Warrantee" style="text;strokeColor=none;fillColor=none;align=left;verticalAlign=middle;spacingLeft=4;spacingRight=4;overflow=hidden;points=[[0,0.5],[1,0.5]];portConstraint=eastwest;rotatable=0;" vertex="1" parent="VQjPy86mHkucHI1g0aib-76">
          <mxGeometry y="30" width="100" height="30" as="geometry" />
        </mxCell>
        <mxCell id="VQjPy86mHkucHI1g0aib-78" value="Count " style="text;strokeColor=none;fillColor=none;align=left;verticalAlign=middle;spacingLeft=4;spacingRight=4;overflow=hidden;points=[[0,0.5],[1,0.5]];portConstraint=eastwest;rotatable=0;" vertex="1" parent="VQjPy86mHkucHI1g0aib-76">
          <mxGeometry y="60" width="100" height="30" as="geometry" />
        </mxCell>
        <mxCell id="VQjPy86mHkucHI1g0aib-79" value="Probability" style="text;strokeColor=none;fillColor=none;align=left;verticalAlign=middle;spacingLeft=4;spacingRight=4;overflow=hidden;points=[[0,0.5],[1,0.5]];portConstraint=eastwest;rotatable=0;" vertex="1" parent="VQjPy86mHkucHI1g0aib-76">
          <mxGeometry y="90" width="100" height="30" as="geometry" />
        </mxCell>
        <mxCell id="VQjPy86mHkucHI1g0aib-80" value="RMA&lt;br&gt;&lt;br&gt;1,070/Year" style="whiteSpace=wrap;html=1;aspect=fixed;" vertex="1" parent="1">
          <mxGeometry x="150" y="285" width="80" height="80" as="geometry" />
        </mxCell>
        <mxCell id="VQjPy86mHkucHI1g0aib-85" value="Triage" style="text;html=1;align=center;verticalAlign=middle;resizable=0;points=[];autosize=1;strokeColor=none;fillColor=none;" vertex="1" parent="1">
          <mxGeometry x="290" y="225" width="60" height="30" as="geometry" />
        </mxCell>
        <mxCell id="VQjPy86mHkucHI1g0aib-86" value="Cost" style="text;html=1;strokeColor=none;fillColor=none;align=center;verticalAlign=middle;whiteSpace=wrap;rounded=0;" vertex="1" parent="1">
          <mxGeometry x="650" y="10" width="60" height="30" as="geometry" />
        </mxCell>
        <mxCell id="VQjPy86mHkucHI1g0aib-88" value="$25" style="text;html=1;strokeColor=none;fillColor=none;align=center;verticalAlign=middle;whiteSpace=wrap;rounded=0;" vertex="1" parent="1">
          <mxGeometry x="650" y="345" width="60" height="30" as="geometry" />
        </mxCell>
        <mxCell id="VQjPy86mHkucHI1g0aib-91" value="Monthly Repair Bill" style="shape=note;whiteSpace=wrap;html=1;backgroundOutline=1;darkOpacity=0.05;" vertex="1" parent="1">
          <mxGeometry x="680" y="630" width="80" height="100" as="geometry" />
        </mxCell>
        <mxCell id="VQjPy86mHkucHI1g0aib-92" value="Alissa" style="text;html=1;strokeColor=none;fillColor=none;align=center;verticalAlign=middle;whiteSpace=wrap;rounded=0;" vertex="1" parent="1">
          <mxGeometry x="1075" y="530" width="60" height="30" as="geometry" />
        </mxCell>
        <mxCell id="VQjPy86mHkucHI1g0aib-93" value="1,712/2,000" style="text;html=1;strokeColor=none;fillColor=none;align=center;verticalAlign=middle;whiteSpace=wrap;rounded=0;" vertex="1" parent="1">
          <mxGeometry x="1000" y="560" width="60" height="30" as="geometry" />
        </mxCell>
        <mxCell id="VQjPy86mHkucHI1g0aib-94" value="Randy" style="text;html=1;strokeColor=none;fillColor=none;align=center;verticalAlign=middle;whiteSpace=wrap;rounded=0;" vertex="1" parent="1">
          <mxGeometry x="1075" y="560" width="60" height="30" as="geometry" />
        </mxCell>
        <mxCell id="VQjPy86mHkucHI1g0aib-95" value="$0" style="text;html=1;align=center;verticalAlign=middle;resizable=0;points=[];autosize=1;strokeColor=none;fillColor=none;" vertex="1" parent="1">
          <mxGeometry x="660" y="550" width="40" height="30" as="geometry" />
        </mxCell>
        <mxCell id="VQjPy86mHkucHI1g0aib-96" value="Probability" style="text;html=1;strokeColor=none;fillColor=none;align=center;verticalAlign=middle;whiteSpace=wrap;rounded=0;" vertex="1" parent="1">
          <mxGeometry x="590" y="10" width="60" height="30" as="geometry" />
        </mxCell>
        <mxCell id="VQjPy86mHkucHI1g0aib-97" value="5%" style="text;html=1;align=center;verticalAlign=middle;resizable=0;points=[];autosize=1;strokeColor=none;fillColor=none;" vertex="1" parent="1">
          <mxGeometry x="595" y="40" width="40" height="30" as="geometry" />
        </mxCell>
        <mxCell id="VQjPy86mHkucHI1g0aib-98" value="33.5%" style="text;html=1;align=center;verticalAlign=middle;resizable=0;points=[];autosize=1;strokeColor=none;fillColor=none;" vertex="1" parent="1">
          <mxGeometry x="590" y="550" width="60" height="30" as="geometry" />
        </mxCell>
        <mxCell id="VQjPy86mHkucHI1g0aib-99" value="36.5%" style="text;html=1;align=center;verticalAlign=middle;resizable=0;points=[];autosize=1;strokeColor=none;fillColor=none;" vertex="1" parent="1">
          <mxGeometry x="585" y="435" width="60" height="30" as="geometry" />
        </mxCell>
        <mxCell id="VQjPy86mHkucHI1g0aib-100" value="10%" style="text;html=1;strokeColor=none;fillColor=none;align=center;verticalAlign=middle;whiteSpace=wrap;rounded=0;" vertex="1" parent="1">
          <mxGeometry x="585" y="345" width="60" height="30" as="geometry" />
        </mxCell>
        <mxCell id="VQjPy86mHkucHI1g0aib-101" value="10%" style="text;html=1;strokeColor=none;fillColor=none;align=center;verticalAlign=middle;whiteSpace=wrap;rounded=0;" vertex="1" parent="1">
          <mxGeometry x="585" y="280" width="60" height="30" as="geometry" />
        </mxCell>
        <mxCell id="VQjPy86mHkucHI1g0aib-102" style="edgeStyle=orthogonalEdgeStyle;rounded=0;orthogonalLoop=1;jettySize=auto;html=1;exitX=0.5;exitY=1;exitDx=0;exitDy=0;" edge="1" parent="1" source="VQjPy86mHkucHI1g0aib-101" target="VQjPy86mHkucHI1g0aib-101">
          <mxGeometry relative="1" as="geometry" />
        </mxCell>
        <mxCell id="VQjPy86mHkucHI1g0aib-103" value="5%" style="text;html=1;strokeColor=none;fillColor=none;align=center;verticalAlign=middle;whiteSpace=wrap;rounded=0;" vertex="1" parent="1">
          <mxGeometry x="585" y="140" width="60" height="30" as="geometry" />
        </mxCell>
        <mxCell id="VQjPy86mHkucHI1g0aib-104" value="$179" style="text;html=1;strokeColor=none;fillColor=none;align=center;verticalAlign=middle;whiteSpace=wrap;rounded=0;" vertex="1" parent="1">
          <mxGeometry x="650" y="140" width="60" height="30" as="geometry" />
        </mxCell>
        <mxCell id="VQjPy86mHkucHI1g0aib-105" value="$179" style="text;html=1;strokeColor=none;fillColor=none;align=center;verticalAlign=middle;whiteSpace=wrap;rounded=0;" vertex="1" parent="1">
          <mxGeometry x="650" y="435" width="60" height="30" as="geometry" />
        </mxCell>
        <mxCell id="VQjPy86mHkucHI1g0aib-106" value="$25" style="text;html=1;strokeColor=none;fillColor=none;align=center;verticalAlign=middle;whiteSpace=wrap;rounded=0;" vertex="1" parent="1">
          <mxGeometry x="650" y="280" width="60" height="30" as="geometry" />
        </mxCell>
        <mxCell id="VQjPy86mHkucHI1g0aib-107" value="$25" style="text;html=1;strokeColor=none;fillColor=none;align=center;verticalAlign=middle;whiteSpace=wrap;rounded=0;" vertex="1" parent="1">
          <mxGeometry x="650" y="40" width="60" height="30" as="geometry" />
        </mxCell>
        <mxCell id="VQjPy86mHkucHI1g0aib-108" value="ODFL Safety&amp;nbsp; Stock&lt;br&gt;25" style="whiteSpace=wrap;html=1;aspect=fixed;" vertex="1" parent="1">
          <mxGeometry x="920" y="75" width="80" height="80" as="geometry" />
        </mxCell>
        <mxCell id="VQjPy86mHkucHI1g0aib-109" value="16,082 Total&lt;br&gt;(Est)" style="whiteSpace=wrap;html=1;aspect=fixed;" vertex="1" parent="1">
          <mxGeometry x="1070" y="620" width="80" height="80" as="geometry" />
        </mxCell>
        <mxCell id="VQjPy86mHkucHI1g0aib-110" value="Count" style="text;html=1;align=center;verticalAlign=middle;resizable=0;points=[];autosize=1;strokeColor=none;fillColor=none;" vertex="1" parent="1">
          <mxGeometry x="990" y="235" width="60" height="30" as="geometry" />
        </mxCell>
        <mxCell id="VQjPy86mHkucHI1g0aib-111" value="Prob" style="text;html=1;strokeColor=none;fillColor=none;align=center;verticalAlign=middle;whiteSpace=wrap;rounded=0;" vertex="1" parent="1">
          <mxGeometry x="1090" y="240" width="60" height="30" as="geometry" />
        </mxCell>
        <mxCell id="VQjPy86mHkucHI1g0aib-112" value="66.5%" style="text;html=1;strokeColor=none;fillColor=none;align=center;verticalAlign=middle;whiteSpace=wrap;rounded=0;" vertex="1" parent="1">
          <mxGeometry x="1080" y="280" width="60" height="30" as="geometry" />
        </mxCell>
        <mxCell id="VQjPy86mHkucHI1g0aib-113" value="0.2%" style="text;html=1;strokeColor=none;fillColor=none;align=center;verticalAlign=middle;whiteSpace=wrap;rounded=0;" vertex="1" parent="1">
          <mxGeometry x="1080" y="330" width="60" height="30" as="geometry" />
        </mxCell>
        <mxCell id="VQjPy86mHkucHI1g0aib-114" value="10.6%" style="text;html=1;strokeColor=none;fillColor=none;align=center;verticalAlign=middle;whiteSpace=wrap;rounded=0;" vertex="1" parent="1">
          <mxGeometry x="1080" y="399" width="60" height="30" as="geometry" />
        </mxCell>
        <mxCell id="VQjPy86mHkucHI1g0aib-116" value="10.6%" style="text;html=1;strokeColor=none;fillColor=none;align=center;verticalAlign=middle;whiteSpace=wrap;rounded=0;" vertex="1" parent="1">
          <mxGeometry x="1080" y="460" width="60" height="30" as="geometry" />
        </mxCell>
        <mxCell id="VQjPy86mHkucHI1g0aib-117" value="12.2%" style="text;html=1;strokeColor=none;fillColor=none;align=center;verticalAlign=middle;whiteSpace=wrap;rounded=0;" vertex="1" parent="1">
          <mxGeometry x="1080" y="500" width="60" height="30" as="geometry" />
        </mxCell>
        <mxCell id="VQjPy86mHkucHI1g0aib-118" value="Count" style="text;html=1;strokeColor=none;fillColor=none;align=center;verticalAlign=middle;whiteSpace=wrap;rounded=0;" vertex="1" parent="1">
          <mxGeometry x="710" y="10" width="60" height="30" as="geometry" />
        </mxCell>
        <mxCell id="VQjPy86mHkucHI1g0aib-120" value="53.5" style="text;html=1;strokeColor=none;fillColor=none;align=center;verticalAlign=middle;whiteSpace=wrap;rounded=0;" vertex="1" parent="1">
          <mxGeometry x="704" y="40" width="60" height="30" as="geometry" />
        </mxCell>
        <mxCell id="VQjPy86mHkucHI1g0aib-122" value="53.5" style="text;html=1;strokeColor=none;fillColor=none;align=center;verticalAlign=middle;whiteSpace=wrap;rounded=0;" vertex="1" parent="1">
          <mxGeometry x="705" y="140" width="60" height="30" as="geometry" />
        </mxCell>
        <mxCell id="VQjPy86mHkucHI1g0aib-125" value="107" style="text;html=1;strokeColor=none;fillColor=none;align=center;verticalAlign=middle;whiteSpace=wrap;rounded=0;" vertex="1" parent="1">
          <mxGeometry x="707" y="280" width="60" height="30" as="geometry" />
        </mxCell>
        <mxCell id="VQjPy86mHkucHI1g0aib-126" value="107" style="text;html=1;strokeColor=none;fillColor=none;align=center;verticalAlign=middle;whiteSpace=wrap;rounded=0;" vertex="1" parent="1">
          <mxGeometry x="707" y="345" width="60" height="30" as="geometry" />
        </mxCell>
        <mxCell id="VQjPy86mHkucHI1g0aib-128" value="380.9" style="text;html=1;strokeColor=none;fillColor=none;align=center;verticalAlign=middle;whiteSpace=wrap;rounded=0;" vertex="1" parent="1">
          <mxGeometry x="705" y="435" width="60" height="30" as="geometry" />
        </mxCell>
        <mxCell id="VQjPy86mHkucHI1g0aib-129" value="&amp;nbsp;358.5" style="text;html=1;strokeColor=none;fillColor=none;align=center;verticalAlign=middle;whiteSpace=wrap;rounded=0;" vertex="1" parent="1">
          <mxGeometry x="705" y="550" width="60" height="30" as="geometry" />
        </mxCell>
        <mxCell id="VQjPy86mHkucHI1g0aib-130" value="267.5" style="text;html=1;strokeColor=none;fillColor=none;align=center;verticalAlign=middle;whiteSpace=wrap;rounded=0;" vertex="1" parent="1">
          <mxGeometry x="840" y="60" width="60" height="30" as="geometry" />
        </mxCell>
        <mxCell id="VQjPy86mHkucHI1g0aib-131" value="434.4" style="text;html=1;strokeColor=none;fillColor=none;align=center;verticalAlign=middle;whiteSpace=wrap;rounded=0;" vertex="1" parent="1">
          <mxGeometry x="840" y="125" width="60" height="30" as="geometry" />
        </mxCell>
        <mxCell id="VQjPy86mHkucHI1g0aib-132" value="ODFL Monthly Safety Stock Adjust @36.2/Month" style="whiteSpace=wrap;html=1;aspect=fixed;" vertex="1" parent="1">
          <mxGeometry x="1020" y="75" width="80" height="80" as="geometry" />
        </mxCell>
      </root>
    </mxGraphModel>
  </diagram>
</mxfile>
